<svg width="298" height="70" viewBox="0 0 298 70" fill="none" xmlns="http://www.w3.org/2000/svg">
<path d="M95.5 40H92.48V33.84H86.82V40H83.8V25.72H86.82V31.32H92.48V25.72H95.5V40ZM103.333 28.86C104.8 28.86 105.92 29.18 106.693 29.82C107.48 30.4467 107.873 31.4133 107.873 32.72V40H105.793L105.213 38.52H105.133C104.666 39.1067 104.173 39.5333 103.653 39.8C103.133 40.0667 102.42 40.2 101.513 40.2C100.54 40.2 99.733 39.92 99.093 39.36C98.453 38.8 98.133 37.9267 98.133 36.74C98.133 35.58 98.5396 34.7267 99.353 34.18C100.166 33.6333 101.386 33.3267 103.013 33.26L104.913 33.2V32.72C104.913 32.1467 104.76 31.7267 104.453 31.46C104.16 31.1933 103.746 31.06 103.213 31.06C102.68 31.06 102.16 31.14 101.653 31.3C101.146 31.4467 100.64 31.6333 100.133 31.86L99.153 29.84C99.7263 29.5467 100.373 29.3133 101.093 29.14C101.813 28.9533 102.56 28.86 103.333 28.86ZM104.913 34.94L103.753 34.98C102.793 35.0067 102.126 35.18 101.753 35.5C101.38 35.82 101.193 36.24 101.193 36.76C101.193 37.2133 101.326 37.54 101.593 37.74C101.86 37.9267 102.206 38.02 102.633 38.02C103.273 38.02 103.813 37.8333 104.253 37.46C104.693 37.0733 104.913 36.5333 104.913 35.84V34.94ZM114.903 28.88C115.69 28.88 116.423 28.9867 117.103 29.2C117.797 29.4 118.35 29.7133 118.763 30.14C119.19 30.5667 119.403 31.1133 119.403 31.78C119.403 32.4333 119.203 32.9533 118.803 33.34C118.403 33.7267 117.877 34.0067 117.223 34.18V34.28C117.69 34.3867 118.11 34.54 118.483 34.74C118.857 34.9267 119.15 35.1867 119.363 35.52C119.59 35.84 119.703 36.2733 119.703 36.82C119.703 37.42 119.51 37.98 119.123 38.5C118.75 39.0067 118.163 39.42 117.363 39.74C116.563 40.0467 115.55 40.2 114.323 40.2C112.51 40.2 111.11 39.9733 110.123 39.52V37.06C110.577 37.2733 111.13 37.4667 111.783 37.64C112.45 37.8133 113.157 37.9 113.903 37.9C114.717 37.9 115.403 37.8067 115.963 37.62C116.523 37.4333 116.803 37.1067 116.803 36.64C116.803 35.7733 115.77 35.34 113.703 35.34H112.543V33.28H113.643C114.63 33.28 115.39 33.2 115.923 33.04C116.47 32.88 116.743 32.58 116.743 32.14C116.743 31.7933 116.57 31.5333 116.223 31.36C115.877 31.1733 115.31 31.08 114.523 31.08C114.003 31.08 113.43 31.14 112.803 31.26C112.19 31.38 111.617 31.5533 111.083 31.78L110.203 29.7C110.83 29.46 111.51 29.2667 112.243 29.12C112.99 28.96 113.877 28.88 114.903 28.88ZM131.697 31.94C131.697 32.5267 131.51 33.0267 131.137 33.44C130.777 33.8533 130.237 34.12 129.517 34.24V34.32C130.277 34.4133 130.884 34.68 131.337 35.12C131.804 35.5467 132.037 36.0867 132.037 36.74C132.037 37.3667 131.87 37.9267 131.537 38.42C131.217 38.9133 130.704 39.3 129.997 39.58C129.29 39.86 128.364 40 127.217 40H122.017V29.08H127.217C128.07 29.08 128.83 29.1733 129.497 29.36C130.177 29.5333 130.71 29.8333 131.097 30.26C131.497 30.6733 131.697 31.2333 131.697 31.94ZM128.677 32.18C128.677 31.5133 128.15 31.18 127.097 31.18H124.997V33.34H126.757C127.384 33.34 127.857 33.2533 128.177 33.08C128.51 32.8933 128.677 32.5933 128.677 32.18ZM128.957 36.58C128.957 36.1533 128.784 35.8467 128.437 35.66C128.104 35.46 127.61 35.36 126.957 35.36H124.997V37.94H127.017C127.577 37.94 128.037 37.84 128.397 37.64C128.77 37.4267 128.957 37.0733 128.957 36.58ZM139.075 28.86C140.542 28.86 141.662 29.18 142.435 29.82C143.222 30.4467 143.615 31.4133 143.615 32.72V40H141.535L140.955 38.52H140.875C140.408 39.1067 139.915 39.5333 139.395 39.8C138.875 40.0667 138.162 40.2 137.255 40.2C136.282 40.2 135.475 39.92 134.835 39.36C134.195 38.8 133.875 37.9267 133.875 36.74C133.875 35.58 134.282 34.7267 135.095 34.18C135.908 33.6333 137.128 33.3267 138.755 33.26L140.655 33.2V32.72C140.655 32.1467 140.502 31.7267 140.195 31.46C139.902 31.1933 139.488 31.06 138.955 31.06C138.422 31.06 137.902 31.14 137.395 31.3C136.888 31.4467 136.382 31.6333 135.875 31.86L134.895 29.84C135.468 29.5467 136.115 29.3133 136.835 29.14C137.555 28.9533 138.302 28.86 139.075 28.86ZM140.655 34.94L139.495 34.98C138.535 35.0067 137.868 35.18 137.495 35.5C137.122 35.82 136.935 36.24 136.935 36.76C136.935 37.2133 137.068 37.54 137.335 37.74C137.602 37.9267 137.948 38.02 138.375 38.02C139.015 38.02 139.555 37.8333 139.995 37.46C140.435 37.0733 140.655 36.5333 140.655 35.84V34.94ZM149.645 29.08V33.28H153.805V29.08H156.785V40H153.805V35.5H149.645V40H146.665V29.08H149.645ZM162.788 29.08V33.4C162.788 33.6267 162.774 33.9067 162.748 34.24C162.734 34.5733 162.714 34.9133 162.688 35.26C162.674 35.6067 162.654 35.92 162.628 36.2C162.601 36.4667 162.581 36.6467 162.568 36.74L167.608 29.08H171.188V40H168.308V35.64C168.308 35.2933 168.321 34.9 168.348 34.46C168.374 34.02 168.401 33.6133 168.428 33.24C168.468 32.8533 168.494 32.56 168.508 32.36L163.488 40H159.908V29.08H162.788ZM178.802 28.88C180.309 28.88 181.502 29.3133 182.382 30.18C183.262 31.0333 183.702 32.2533 183.702 33.84V35.28H176.662C176.689 36.12 176.936 36.78 177.402 37.26C177.882 37.74 178.542 37.98 179.382 37.98C180.076 37.98 180.709 37.9133 181.282 37.78C181.869 37.6333 182.469 37.4133 183.082 37.12V39.42C182.536 39.6867 181.969 39.88 181.382 40C180.796 40.1333 180.082 40.2 179.242 40.2C178.149 40.2 177.182 40 176.342 39.6C175.502 39.1867 174.842 38.5733 174.362 37.76C173.882 36.9333 173.642 35.8867 173.642 34.62C173.642 33.3533 173.856 32.2933 174.282 31.44C174.722 30.5867 175.329 29.9467 176.102 29.52C176.876 29.0933 177.776 28.88 178.802 28.88ZM178.822 31C178.236 31 177.756 31.1867 177.382 31.56C177.009 31.9333 176.789 32.5133 176.722 33.3H180.902C180.889 32.6467 180.709 32.1 180.362 31.66C180.029 31.22 179.516 31 178.822 31ZM197.947 29.08H201.227L196.907 34.32L201.607 40H198.227L193.767 34.46V40H190.787V29.08H193.767V34.38L197.947 29.08ZM212.699 34.52C212.699 36.3333 212.219 37.7333 211.259 38.72C210.312 39.7067 209.019 40.2 207.379 40.2C206.365 40.2 205.459 39.98 204.659 39.54C203.872 39.1 203.252 38.46 202.799 37.62C202.345 36.7667 202.119 35.7333 202.119 34.52C202.119 32.7067 202.592 31.3133 203.539 30.34C204.485 29.3667 205.785 28.88 207.439 28.88C208.465 28.88 209.372 29.1 210.159 29.54C210.945 29.98 211.565 30.62 212.019 31.46C212.472 32.3 212.699 33.32 212.699 34.52ZM205.159 34.52C205.159 35.6 205.332 36.42 205.679 36.98C206.039 37.5267 206.619 37.8 207.419 37.8C208.205 37.8 208.772 37.5267 209.119 36.98C209.479 36.42 209.659 35.6 209.659 34.52C209.659 33.44 209.479 32.6333 209.119 32.1C208.772 31.5533 208.199 31.28 207.399 31.28C206.612 31.28 206.039 31.5533 205.679 32.1C205.332 32.6333 205.159 33.44 205.159 34.52ZM228.922 29.08V40H226.142V34.64C226.142 34.1067 226.148 33.5867 226.162 33.08C226.188 32.5733 226.222 32.1067 226.262 31.68H226.202L223.182 40H220.942L217.882 31.66H217.802C217.855 32.1 217.888 32.5733 217.902 33.08C217.928 33.5733 217.942 34.12 217.942 34.72V40H215.162V29.08H219.382L222.102 36.48L224.862 29.08H228.922ZM241.957 29.08V40H238.977V31.32H235.017V40H232.037V29.08H241.957ZM249.563 28.86C251.03 28.86 252.15 29.18 252.923 29.82C253.71 30.4467 254.103 31.4133 254.103 32.72V40H252.023L251.443 38.52H251.363C250.897 39.1067 250.403 39.5333 249.883 39.8C249.363 40.0667 248.65 40.2 247.743 40.2C246.77 40.2 245.963 39.92 245.323 39.36C244.683 38.8 244.363 37.9267 244.363 36.74C244.363 35.58 244.77 34.7267 245.583 34.18C246.397 33.6333 247.617 33.3267 249.243 33.26L251.143 33.2V32.72C251.143 32.1467 250.99 31.7267 250.683 31.46C250.39 31.1933 249.977 31.06 249.443 31.06C248.91 31.06 248.39 31.14 247.883 31.3C247.377 31.4467 246.87 31.6333 246.363 31.86L245.383 29.84C245.957 29.5467 246.603 29.3133 247.323 29.14C248.043 28.9533 248.79 28.86 249.563 28.86ZM251.143 34.94L249.983 34.98C249.023 35.0067 248.357 35.18 247.983 35.5C247.61 35.82 247.423 36.24 247.423 36.76C247.423 37.2133 247.557 37.54 247.823 37.74C248.09 37.9267 248.437 38.02 248.863 38.02C249.503 38.02 250.043 37.8333 250.483 37.46C250.923 37.0733 251.143 36.5333 251.143 35.84V34.94ZM260.134 29.08V33.28H264.294V29.08H267.274V40H264.294V35.5H260.134V40H257.154V29.08H260.134ZM273.276 29.08V33.4C273.276 33.6267 273.263 33.9067 273.236 34.24C273.223 34.5733 273.203 34.9133 273.176 35.26C273.163 35.6067 273.143 35.92 273.116 36.2C273.089 36.4667 273.069 36.6467 273.056 36.74L278.096 29.08H281.676V40H278.796V35.64C278.796 35.2933 278.809 34.9 278.836 34.46C278.863 34.02 278.889 33.6133 278.916 33.24C278.956 32.8533 278.983 32.56 278.996 32.36L273.976 40H270.396V29.08H273.276ZM287.67 29.08V33.4C287.67 33.6267 287.657 33.9067 287.63 34.24C287.617 34.5733 287.597 34.9133 287.57 35.26C287.557 35.6067 287.537 35.92 287.51 36.2C287.484 36.4667 287.464 36.6467 287.45 36.74L292.49 29.08H296.07V40H293.19V35.64C293.19 35.2933 293.204 34.9 293.23 34.46C293.257 34.02 293.284 33.6133 293.31 33.24C293.35 32.8533 293.377 32.56 293.39 32.36L288.37 40H284.79V29.08H287.67Z" fill="#E1E1E1"/>
<circle cx="35" cy="35" r="35" fill="#D9D9D9"/>
</svg>
