<svg width="60" height="60" viewBox="0 0 60 60" fill="none" xmlns="http://www.w3.org/2000/svg">
<circle cx="30" cy="30" r="30" fill="#DC3545"/>
<g clip-path="url(#clip0_163_65)">
<path d="M35.625 19.625C35.625 20.4629 35.4434 21.2598 35.1094 21.9805L38.2031 27.3242C36.8145 28.8066 35.0273 29.9082 33.0176 30.4648L30 25.25L26.0156 32.1348C27.2754 32.5332 28.6113 32.75 30.0059 32.75C34.1484 32.75 37.8457 30.834 40.2539 27.8281C40.9043 27.0195 42.082 26.8906 42.8906 27.5352C43.6992 28.1797 43.8281 29.3633 43.1836 30.1719C40.084 34.0273 35.332 36.5 30 36.5C27.9258 36.5 25.9336 36.125 24.0996 35.4395L20.7832 41.1699C20.5078 41.6445 20.0977 42.0312 19.6055 42.2773L16.3594 43.9004C16.0664 44.0469 15.7207 44.0293 15.4453 43.8594C15.1699 43.6895 15 43.3848 15 43.0625V39.8164C15 39.3242 15.1289 38.8379 15.3809 38.4043L18.8965 32.3281C18.1465 31.6719 17.4492 30.9512 16.8281 30.1719C16.1777 29.3633 16.3125 28.1855 17.1211 27.5352C17.9297 26.8848 19.1074 27.0195 19.7578 27.8281C20.0918 28.2441 20.4492 28.6367 20.8242 29.0059L24.8906 21.9805C24.5625 21.2656 24.375 20.4687 24.375 19.625C24.375 16.5195 26.8945 14 30 14C33.1055 14 35.625 16.5195 35.625 19.625ZM36.8555 37.0801C38.7656 36.3301 40.5176 35.2754 42.0645 33.9805L44.625 38.4043C44.8711 38.832 45.0059 39.3184 45.0059 39.8164V43.0625C45.0059 43.3848 44.8359 43.6895 44.5605 43.8594C44.2852 44.0293 43.9395 44.0469 43.6465 43.9004L40.4004 42.2773C39.9082 42.0312 39.498 41.6445 39.2227 41.1699L36.8555 37.0801ZM30 21.5C30.4973 21.5 30.9742 21.3025 31.3258 20.9508C31.6775 20.5992 31.875 20.1223 31.875 19.625C31.875 19.1277 31.6775 18.6508 31.3258 18.2992C30.9742 17.9475 30.4973 17.75 30 17.75C29.5027 17.75 29.0258 17.9475 28.6742 18.2992C28.3225 18.6508 28.125 19.1277 28.125 19.625C28.125 20.1223 28.3225 20.5992 28.6742 20.9508C29.0258 21.3025 29.5027 21.5 30 21.5Z" fill="white"/>
</g>
<defs>
<clipPath id="clip0_163_65">
<rect width="30" height="30" fill="white" transform="translate(15 14)"/>
</clipPath>
</defs>
</svg>
