<svg width="60" height="60" viewBox="0 0 60 60" fill="none" xmlns="http://www.w3.org/2000/svg">
<circle cx="30" cy="30" r="30" fill="#DC3545"/>
<g clip-path="url(#clip0_163_33)">
<path d="M36.2148 18.291L43.7031 25.8672C46.7734 28.9727 46.7734 33.9648 43.7031 37.0703L37.1406 43.709C36.5957 44.2598 35.7051 44.2656 35.1543 43.7207C34.6035 43.1758 34.5977 42.2852 35.1426 41.7344L41.6992 35.0957C43.6855 33.0859 43.6855 29.8574 41.6992 27.8477L34.2168 20.2715C33.6719 19.7207 33.6777 18.8301 34.2285 18.2852C34.7793 17.7402 35.6699 17.7461 36.2148 18.2969V18.291ZM16 29.4473V20.6875C16 19.1348 17.2598 17.875 18.8125 17.875H27.5723C28.5684 17.875 29.5234 18.2676 30.2266 18.9707L40.0703 28.8145C41.5352 30.2793 41.5352 32.6523 40.0703 34.1172L32.248 41.9395C30.7832 43.4043 28.4102 43.4043 26.9453 41.9395L17.1016 32.0957C16.3926 31.3926 16 30.4434 16 29.4473ZM24.4375 24.4375C24.4375 23.9402 24.24 23.4633 23.8883 23.1117C23.5367 22.76 23.0598 22.5625 22.5625 22.5625C22.0652 22.5625 21.5883 22.76 21.2367 23.1117C20.885 23.4633 20.6875 23.9402 20.6875 24.4375C20.6875 24.9348 20.885 25.4117 21.2367 25.7633C21.5883 26.115 22.0652 26.3125 22.5625 26.3125C23.0598 26.3125 23.5367 26.115 23.8883 25.7633C24.24 25.4117 24.4375 24.9348 24.4375 24.4375Z" fill="white"/>
</g>
<defs>
<clipPath id="clip0_163_33">
<rect width="30" height="30" fill="white" transform="translate(16 16)"/>
</clipPath>
</defs>
</svg>
