<svg width="40" height="40" viewBox="0 0 40 40" fill="none" xmlns="http://www.w3.org/2000/svg">
<g clip-path="url(#clip0_860_539)">
<g clip-path="url(#clip1_860_539)">
<path d="M20 40C31.0457 40 40 31.0457 40 20C40 8.9543 31.0457 0 20 0C8.9543 0 0 8.9543 0 20C0 31.0457 8.9543 40 20 40Z" fill="#C13584"/>
<path d="M20 10.982C22.9371 10.982 23.2851 10.9932 24.4449 11.0461C25.5174 11.095 26.0999 11.2742 26.4875 11.4249C27.0009 11.6244 27.3673 11.8627 27.7523 12.2477C28.1373 12.6327 28.3756 12.9991 28.5751 13.5125C28.7257 13.9001 28.905 14.4826 28.9539 15.555C29.0068 16.7149 29.018 17.0628 29.018 19.9999C29.018 22.9371 29.0068 23.285 28.9539 24.4449C28.905 25.5174 28.7257 26.0998 28.5751 26.4874C28.3756 27.0009 28.1373 27.3673 27.7523 27.7522C27.3673 28.1372 27.0009 28.3755 26.4875 28.575C26.0999 28.7257 25.5174 28.9049 24.4449 28.9538C23.2852 29.0067 22.9374 29.018 20 29.018C17.0626 29.018 16.7148 29.0067 15.5551 28.9538C14.4826 28.9049 13.9001 28.7257 13.5125 28.575C12.9991 28.3755 12.6327 28.1372 12.2478 27.7522C11.8628 27.3673 11.6244 27.0009 11.4249 26.4874C11.2742 26.0998 11.095 25.5174 11.0461 24.4449C10.9932 23.285 10.982 22.9371 10.982 19.9999C10.982 17.0628 10.9932 16.7149 11.0461 15.555C11.095 14.4826 11.2742 13.9001 11.4249 13.5125C11.6244 12.9991 11.8628 12.6327 12.2478 12.2478C12.6327 11.8628 12.9991 11.6244 13.5125 11.4249C13.9001 11.2742 14.4826 11.095 15.5551 11.0461C16.7149 10.9932 17.0629 10.982 20 10.982ZM20 9C17.0126 9 16.6379 9.01265 15.4647 9.06618C14.2939 9.11962 13.4942 9.30553 12.7945 9.5775C12.0712 9.85855 11.4578 10.2347 10.8463 10.8463C10.2347 11.4578 9.85855 12.0712 9.5775 12.7945C9.30553 13.4942 9.11962 14.2938 9.06618 15.4647C9.01265 16.6379 9 17.0126 9 19.9999C9 22.9874 9.01265 23.362 9.06618 24.5352C9.11962 25.7061 9.30553 26.5057 9.5775 27.2054C9.85855 27.9287 10.2347 28.5421 10.8463 29.1537C11.4578 29.7652 12.0712 30.1414 12.7945 30.4224C13.4942 30.6944 14.2939 30.8803 15.4647 30.9337C16.6379 30.9873 17.0126 30.9999 20 30.9999C22.9874 30.9999 23.3621 30.9873 24.5353 30.9337C25.7061 30.8803 26.5058 30.6944 27.2055 30.4224C27.9288 30.1414 28.5422 29.7652 29.1537 29.1537C29.7653 28.5421 30.1414 27.9287 30.4225 27.2054C30.6945 26.5057 30.8804 25.7061 30.9338 24.5352C30.9873 23.362 31 22.9874 31 19.9999C31 17.0126 30.9873 16.6379 30.9338 15.4647C30.8804 14.2938 30.6945 13.4942 30.4225 12.7945C30.1414 12.0712 29.7653 11.4578 29.1537 10.8463C28.5422 10.2347 27.9288 9.85855 27.2055 9.5775C26.5058 9.30553 25.7061 9.11962 24.5353 9.06618C23.3621 9.01265 22.9874 9 20 9Z" fill="white"/>
<path d="M20.0049 14.8694C17.1688 14.8694 14.8698 17.1684 14.8698 20.0045C14.8698 22.8406 17.1688 25.1396 20.0049 25.1396C22.841 25.1396 25.1401 22.8406 25.1401 20.0045C25.1401 17.1684 22.841 14.8694 20.0049 14.8694ZM20.0049 23.3378C18.164 23.3378 16.6716 21.8454 16.6716 20.0045C16.6716 18.1636 18.164 16.6711 20.0049 16.6711C21.8459 16.6711 23.3382 18.1636 23.3382 20.0045C23.3382 21.8454 21.8459 23.3378 20.0049 23.3378Z" fill="white"/>
<path d="M26.5422 14.6635C26.5422 15.3261 26.005 15.8635 25.3422 15.8635C24.6795 15.8635 24.1422 15.3261 24.1422 14.6635C24.1422 14.0007 24.6795 13.4634 25.3422 13.4634C26.005 13.4634 26.5422 14.0007 26.5422 14.6635Z" fill="white"/>
</g>
</g>
<defs>
<clipPath id="clip0_860_539">
<rect width="40" height="40" fill="white"/>
</clipPath>
<clipPath id="clip1_860_539">
<rect width="40" height="40" fill="white"/>
</clipPath>
</defs>
</svg>
