<svg width="306" height="70" viewBox="0 0 306 70" fill="none" xmlns="http://www.w3.org/2000/svg">
<g clip-path="url(#clip0_923_925)">
<path d="M98.5 42H95.48V35.84H89.82V42H86.8V27.72H89.82V33.32H95.48V27.72H98.5V42ZM106.333 30.86C107.8 30.86 108.92 31.18 109.693 31.82C110.48 32.4467 110.873 33.4133 110.873 34.72V42H108.793L108.213 40.52H108.133C107.666 41.1067 107.173 41.5333 106.653 41.8C106.133 42.0667 105.42 42.2 104.513 42.2C103.54 42.2 102.733 41.92 102.093 41.36C101.453 40.8 101.133 39.9267 101.133 38.74C101.133 37.58 101.54 36.7267 102.353 36.18C103.166 35.6333 104.386 35.3267 106.013 35.26L107.913 35.2V34.72C107.913 34.1467 107.76 33.7267 107.453 33.46C107.16 33.1933 106.746 33.06 106.213 33.06C105.68 33.06 105.16 33.14 104.653 33.3C104.146 33.4467 103.64 33.6333 103.133 33.86L102.153 31.84C102.726 31.5467 103.373 31.3133 104.093 31.14C104.813 30.9533 105.56 30.86 106.333 30.86ZM107.913 36.94L106.753 36.98C105.793 37.0067 105.126 37.18 104.753 37.5C104.38 37.82 104.193 38.24 104.193 38.76C104.193 39.2133 104.326 39.54 104.593 39.74C104.86 39.9267 105.206 40.02 105.633 40.02C106.273 40.02 106.813 39.8333 107.253 39.46C107.693 39.0733 107.913 38.5333 107.913 37.84V36.94ZM117.903 30.88C118.69 30.88 119.423 30.9867 120.103 31.2C120.797 31.4 121.35 31.7133 121.763 32.14C122.19 32.5667 122.403 33.1133 122.403 33.78C122.403 34.4333 122.203 34.9533 121.803 35.34C121.403 35.7267 120.877 36.0067 120.223 36.18V36.28C120.69 36.3867 121.11 36.54 121.483 36.74C121.857 36.9267 122.15 37.1867 122.363 37.52C122.59 37.84 122.703 38.2733 122.703 38.82C122.703 39.42 122.51 39.98 122.123 40.5C121.75 41.0067 121.163 41.42 120.363 41.74C119.563 42.0467 118.55 42.2 117.323 42.2C115.51 42.2 114.11 41.9733 113.123 41.52V39.06C113.577 39.2733 114.13 39.4667 114.783 39.64C115.45 39.8133 116.157 39.9 116.903 39.9C117.717 39.9 118.403 39.8067 118.963 39.62C119.523 39.4333 119.803 39.1067 119.803 38.64C119.803 37.7733 118.77 37.34 116.703 37.34H115.543V35.28H116.643C117.63 35.28 118.39 35.2 118.923 35.04C119.47 34.88 119.743 34.58 119.743 34.14C119.743 33.7933 119.57 33.5333 119.223 33.36C118.877 33.1733 118.31 33.08 117.523 33.08C117.003 33.08 116.43 33.14 115.803 33.26C115.19 33.38 114.617 33.5533 114.083 33.78L113.203 31.7C113.83 31.46 114.51 31.2667 115.243 31.12C115.99 30.96 116.877 30.88 117.903 30.88ZM134.697 33.94C134.697 34.5267 134.51 35.0267 134.137 35.44C133.777 35.8533 133.237 36.12 132.517 36.24V36.32C133.277 36.4133 133.884 36.68 134.337 37.12C134.804 37.5467 135.037 38.0867 135.037 38.74C135.037 39.3667 134.87 39.9267 134.537 40.42C134.217 40.9133 133.704 41.3 132.997 41.58C132.29 41.86 131.364 42 130.217 42H125.017V31.08H130.217C131.07 31.08 131.83 31.1733 132.497 31.36C133.177 31.5333 133.71 31.8333 134.097 32.26C134.497 32.6733 134.697 33.2333 134.697 33.94ZM131.677 34.18C131.677 33.5133 131.15 33.18 130.097 33.18H127.997V35.34H129.757C130.384 35.34 130.857 35.2533 131.177 35.08C131.51 34.8933 131.677 34.5933 131.677 34.18ZM131.957 38.58C131.957 38.1533 131.784 37.8467 131.437 37.66C131.104 37.46 130.61 37.36 129.957 37.36H127.997V39.94H130.017C130.577 39.94 131.037 39.84 131.397 39.64C131.77 39.4267 131.957 39.0733 131.957 38.58ZM142.075 30.86C143.542 30.86 144.662 31.18 145.435 31.82C146.222 32.4467 146.615 33.4133 146.615 34.72V42H144.535L143.955 40.52H143.875C143.408 41.1067 142.915 41.5333 142.395 41.8C141.875 42.0667 141.162 42.2 140.255 42.2C139.282 42.2 138.475 41.92 137.835 41.36C137.195 40.8 136.875 39.9267 136.875 38.74C136.875 37.58 137.282 36.7267 138.095 36.18C138.908 35.6333 140.128 35.3267 141.755 35.26L143.655 35.2V34.72C143.655 34.1467 143.502 33.7267 143.195 33.46C142.902 33.1933 142.488 33.06 141.955 33.06C141.422 33.06 140.902 33.14 140.395 33.3C139.888 33.4467 139.382 33.6333 138.875 33.86L137.895 31.84C138.468 31.5467 139.115 31.3133 139.835 31.14C140.555 30.9533 141.302 30.86 142.075 30.86ZM143.655 36.94L142.495 36.98C141.535 37.0067 140.868 37.18 140.495 37.5C140.122 37.82 139.935 38.24 139.935 38.76C139.935 39.2133 140.068 39.54 140.335 39.74C140.602 39.9267 140.948 40.02 141.375 40.02C142.015 40.02 142.555 39.8333 142.995 39.46C143.435 39.0733 143.655 38.5333 143.655 37.84V36.94ZM152.645 31.08V35.28H156.805V31.08H159.785V42H156.805V37.5H152.645V42H149.665V31.08H152.645ZM165.788 31.08V35.4C165.788 35.6267 165.774 35.9067 165.748 36.24C165.734 36.5733 165.714 36.9133 165.688 37.26C165.674 37.6067 165.654 37.92 165.628 38.2C165.601 38.4667 165.581 38.6467 165.568 38.74L170.608 31.08H174.188V42H171.308V37.64C171.308 37.2933 171.321 36.9 171.348 36.46C171.374 36.02 171.401 35.6133 171.428 35.24C171.468 34.8533 171.494 34.56 171.508 34.36L166.488 42H162.908V31.08H165.788ZM181.802 30.88C183.309 30.88 184.502 31.3133 185.382 32.18C186.262 33.0333 186.702 34.2533 186.702 35.84V37.28H179.662C179.689 38.12 179.936 38.78 180.402 39.26C180.882 39.74 181.542 39.98 182.382 39.98C183.076 39.98 183.709 39.9133 184.282 39.78C184.869 39.6333 185.469 39.4133 186.082 39.12V41.42C185.536 41.6867 184.969 41.88 184.382 42C183.796 42.1333 183.082 42.2 182.242 42.2C181.149 42.2 180.182 42 179.342 41.6C178.502 41.1867 177.842 40.5733 177.362 39.76C176.882 38.9333 176.642 37.8867 176.642 36.62C176.642 35.3533 176.856 34.2933 177.282 33.44C177.722 32.5867 178.329 31.9467 179.102 31.52C179.876 31.0933 180.776 30.88 181.802 30.88ZM181.822 33C181.236 33 180.756 33.1867 180.382 33.56C180.009 33.9333 179.789 34.5133 179.722 35.3H183.902C183.889 34.6467 183.709 34.1 183.362 33.66C183.029 33.22 182.516 33 181.822 33ZM200.947 31.08H204.227L199.907 36.32L204.607 42H201.227L196.767 36.46V42H193.787V31.08H196.767V36.38L200.947 31.08ZM215.699 36.52C215.699 38.3333 215.219 39.7333 214.259 40.72C213.312 41.7067 212.019 42.2 210.379 42.2C209.365 42.2 208.459 41.98 207.659 41.54C206.872 41.1 206.252 40.46 205.799 39.62C205.345 38.7667 205.119 37.7333 205.119 36.52C205.119 34.7067 205.592 33.3133 206.539 32.34C207.485 31.3667 208.785 30.88 210.439 30.88C211.465 30.88 212.372 31.1 213.159 31.54C213.945 31.98 214.565 32.62 215.019 33.46C215.472 34.3 215.699 35.32 215.699 36.52ZM208.159 36.52C208.159 37.6 208.332 38.42 208.679 38.98C209.039 39.5267 209.619 39.8 210.419 39.8C211.205 39.8 211.772 39.5267 212.119 38.98C212.479 38.42 212.659 37.6 212.659 36.52C212.659 35.44 212.479 34.6333 212.119 34.1C211.772 33.5533 211.199 33.28 210.399 33.28C209.612 33.28 209.039 33.5533 208.679 34.1C208.332 34.6333 208.159 35.44 208.159 36.52ZM231.922 31.08V42H229.142V36.64C229.142 36.1067 229.148 35.5867 229.162 35.08C229.188 34.5733 229.222 34.1067 229.262 33.68H229.202L226.182 42H223.942L220.882 33.66H220.802C220.855 34.1 220.888 34.5733 220.902 35.08C220.928 35.5733 220.942 36.12 220.942 36.72V42H218.162V31.08H222.382L225.102 38.48L227.862 31.08H231.922ZM244.957 31.08V42H241.977V33.32H238.017V42H235.037V31.08H244.957ZM252.563 30.86C254.03 30.86 255.15 31.18 255.923 31.82C256.71 32.4467 257.103 33.4133 257.103 34.72V42H255.023L254.443 40.52H254.363C253.897 41.1067 253.403 41.5333 252.883 41.8C252.363 42.0667 251.65 42.2 250.743 42.2C249.77 42.2 248.963 41.92 248.323 41.36C247.683 40.8 247.363 39.9267 247.363 38.74C247.363 37.58 247.77 36.7267 248.583 36.18C249.397 35.6333 250.617 35.3267 252.243 35.26L254.143 35.2V34.72C254.143 34.1467 253.99 33.7267 253.683 33.46C253.39 33.1933 252.977 33.06 252.443 33.06C251.91 33.06 251.39 33.14 250.883 33.3C250.377 33.4467 249.87 33.6333 249.363 33.86L248.383 31.84C248.957 31.5467 249.603 31.3133 250.323 31.14C251.043 30.9533 251.79 30.86 252.563 30.86ZM254.143 36.94L252.983 36.98C252.023 37.0067 251.357 37.18 250.983 37.5C250.61 37.82 250.423 38.24 250.423 38.76C250.423 39.2133 250.557 39.54 250.823 39.74C251.09 39.9267 251.437 40.02 251.863 40.02C252.503 40.02 253.043 39.8333 253.483 39.46C253.923 39.0733 254.143 38.5333 254.143 37.84V36.94ZM263.134 31.08V35.28H267.294V31.08H270.274V42H267.294V37.5H263.134V42H260.154V31.08H263.134ZM276.276 31.08V35.4C276.276 35.6267 276.263 35.9067 276.236 36.24C276.223 36.5733 276.203 36.9133 276.176 37.26C276.163 37.6067 276.143 37.92 276.116 38.2C276.089 38.4667 276.069 38.6467 276.056 38.74L281.096 31.08H284.676V42H281.796V37.64C281.796 37.2933 281.809 36.9 281.836 36.46C281.863 36.02 281.889 35.6133 281.916 35.24C281.956 34.8533 281.983 34.56 281.996 34.36L276.976 42H273.396V31.08H276.276ZM290.67 31.08V35.4C290.67 35.6267 290.657 35.9067 290.63 36.24C290.617 36.5733 290.597 36.9133 290.57 37.26C290.557 37.6067 290.537 37.92 290.51 38.2C290.484 38.4667 290.464 38.6467 290.45 38.74L295.49 31.08H299.07V42H296.19V37.64C296.19 37.2933 296.204 36.9 296.23 36.46C296.257 36.02 296.284 35.6133 296.31 35.24C296.35 34.8533 296.377 34.56 296.39 34.36L291.37 42H287.79V31.08H290.67Z" fill="#EBEBEB"/>
<circle cx="35" cy="35" r="35" fill="#D9D9D9"/>
</g>
<defs>
<clipPath id="clip0_923_925">
<rect width="306" height="70" fill="white"/>
</clipPath>
</defs>
</svg>
