<svg width="22" height="22" viewBox="0 0 22 22" fill="none" xmlns="http://www.w3.org/2000/svg">
<g clip-path="url(#clip0_667_3518)">
<path d="M20.1652 0.829296L21.1707 1.83476C22.2449 2.90898 22.2449 4.64922 21.1707 5.72344L18.7473 8.14687L13.8488 3.25273L16.2723 0.829296C17.3465 -0.244923 19.0867 -0.244923 20.1609 0.829296H20.1652ZM1.92931 15.1766L12.8777 4.22383L17.7762 9.12226L6.82345 20.0707C6.53556 20.3586 6.17462 20.5691 5.7836 20.6809L1.31485 21.957C0.953917 22.0602 0.567198 21.9613 0.300792 21.6949C0.0343856 21.4285 -0.0644425 21.0418 0.0386825 20.6809L1.31485 16.2121C1.42657 15.8168 1.63712 15.4602 1.92501 15.1723L1.92931 15.1766ZM10.7164 4.44297L4.44298 10.7164L0.687511 6.95664C-0.116005 6.15312 -0.116005 4.84687 0.687511 4.03906L4.04337 0.687499C4.84689 -0.116016 6.15314 -0.116016 6.96095 0.687499L7.81173 1.53828C7.79884 1.55117 7.78165 1.56406 7.76876 1.57695L5.01876 4.32695C4.75235 4.59336 4.75235 5.03164 5.01876 5.29805C5.28517 5.56445 5.72345 5.56445 5.98985 5.29805L8.73985 2.54805C8.75274 2.53516 8.76564 2.51797 8.77853 2.50508L10.7164 4.44297ZM17.557 11.2836L19.4949 13.2215C19.482 13.2344 19.4649 13.2473 19.452 13.2602L16.702 16.0102C16.4356 16.2766 16.4356 16.7148 16.702 16.9813C16.9684 17.2477 17.4067 17.2477 17.6731 16.9813L20.4231 14.2313C20.4359 14.2184 20.4488 14.2012 20.4617 14.1883L21.3125 15.0434C22.116 15.8469 22.116 17.1531 21.3125 17.9609L17.9567 21.3125C17.1531 22.116 15.8469 22.116 15.0391 21.3125L11.2836 17.557L17.557 11.2836Z" fill="#FF5147"/>
</g>
<defs>
<clipPath id="clip0_667_3518">
<rect width="22" height="22" fill="white"/>
</clipPath>
</defs>
</svg>
